<?xml version="1.0" encoding="UTF-8"?>
<svg width="1200" height="800" viewBox="0 0 1200 800" fill="none" xmlns="http://www.w3.org/2000/svg">
  <g stroke="#E5E7EB" stroke-width="32" stroke-linecap="round" stroke-linejoin="round">
    <!-- Left house body -->
    <path d="M80 360 L360 80 L640 360" />
    <rect x="80" y="360" width="560" height="360" rx="8" />
    <rect x="180" y="460" width="80" height="160" rx="4" />
    <rect x="420" y="460" width="80" height="160" rx="4" />
    <rect x="300" y="560" width="120" height="160" rx="4" />

    <!-- Right house body -->
    <rect x="640" y="360" width="480" height="360" rx="8" />
    <rect x="720" y="520" width="140" height="120" rx="4" />
    <rect x="980" y="520" width="140" height="120" rx="4" />
    <!-- Roof -->
    <path d="M600 280 L960 280 L1140 520" />
    <path d="M360 80 L960 80 L960 280" />
    <!-- Chimney -->
    <rect x="880" y="16" width="80" height="120" rx="6" />
    <!-- Roof shingles (suggestive dashes) -->
    <line x1="700" y1="340" x2="780" y2="340" />
    <line x1="840" y1="340" x2="940" y2="340" />
    <line x1="760" y1="400" x2="860" y2="400" />
    <line x1="980" y1="400" x2="1080" y2="400" />
    <line x1="900" y1="460" x2="980" y2="460" />
  </g>
</svg>


