<?xml version="1.0" encoding="utf-8"?>
<!-- Generator: Adobe Illustrator 19.0.0, SVG Export Plug-In . SVG Version: 6.00 Build 0)  -->
<svg version="1.1" id="Layer_1" xmlns="http://www.w3.org/2000/svg" xmlns:xlink="http://www.w3.org/1999/xlink" x="0px" y="0px"
	 viewBox="-223 25 512 512" style="enable-background:new -223 25 512 512;" xml:space="preserve">
<style type="text/css">
	.st0{fill:#16263E;}
	.st1{fill:#F0B532;stroke:#000000;stroke-width:0.5255;stroke-miterlimit:10;}
</style>
<g>
	<path class="st0" d="M11.3,77.6c-33.3,4.6-64.6,18.2-89.4,38.9c-32.7,27.3-53.1,64.5-58.5,106.7c-1.8,14.5-1.2,37.6,1.4,51.2
		c5.6,29,16.7,53.2,35.3,76.7c3.3,4.2,31.9,33.4,69.1,70.8l63.6,63.6l62.1-62.2c35.5-35.6,64.8-65.6,68.6-70.1
		c21.5-26.4,34.5-55,38.9-86c1.6-11.8,1.6-34.8-0.1-46c-7.5-48.8-32.8-88.5-74.1-116c-10-6.7-24.9-14.3-34.6-18
		C81,82.5,64.4,78.5,51.4,77.1C41.7,76.1,20.1,76.3,11.3,77.6 M18.8,123.3c-31.9,4-61.2,19.3-80.2,42c-7.4,8.8-12.1,16-16.9,26.1
		c-16.2,33.5-15.9,73.4,0.7,108.1c7.6,15.9,16.6,27.5,35.5,45.9c7.1,6.9,26.7,26.3,43.7,43.1L32.4,419l6.5-6.3
		c26.2-25.2,84.5-83.1,88.4-87.7c13.6-16.3,22.9-35.4,27.2-56.2c2-9.7,2.7-27.2,1.6-37.6c-6.1-54-46.2-96.7-100-106.5
		C46.1,123,27.3,122.3,18.8,123.3 M25.5,198.3c-4,0.7-11.8,3.5-15.6,5.6C3.1,207.7-5,216.4-8.7,223.8c-6.7,13.7-6.7,27.3,0,41.5
		c8.9,18.7,29.8,29.2,50.4,25.3c29.8-5.7,46.2-37.1,34-65.6c-3.5-8.1-12.3-17.6-20.4-22C47.2,198.8,34.7,196.8,25.5,198.3"/>
	<g>
		<path class="st1" d="M155.9,231.3c-6.1-54-46.2-96.7-100-106.5c-9.7-1.8-28.5-2.5-37-1.4c-31.9,4-61.2,19.3-80.2,42
			c-7.4,8.8-12.1,16-16.9,26.1c-16.2,33.5-15.9,73.4,0.7,108.1c7.6,15.9,16.6,27.5,35.5,45.9c7.1,6.9,26.7,26.3,43.7,43.1l30.8,30.4
			l6.5-6.3c26.2-25.2,84.5-83.1,88.4-87.7c13.6-16.3,22.9-35.4,27.2-56.2C156.3,259.3,157.1,241.7,155.9,231.3z M41.8,290.6
			c-20.7,3.9-41.5-6.6-50.4-25.3c-6.7-14.2-6.8-27.8,0-41.5c3.6-7.4,11.8-16.1,18.5-19.9c3.9-2.2,11.6-4.9,15.6-5.6
			c9.2-1.5,21.8,0.5,29.8,4.7c8.1,4.4,17,13.8,20.4,22C88,253.5,71.7,284.9,41.8,290.6z"/>
	</g>
</g>
</svg>
