<svg xmlns="http://www.w3.org/2000/svg" width="1024" height="1024" viewBox="0 0 1024 1024" version="1.1">
  <!-- Pin outline -->
  <path d="M 483 226.521 C 438.325 232.706, 396.212 251.057, 362.936 278.838 C 319.031 315.493, 291.657 365.472, 284.443 422.150 C 281.964 441.626, 282.816 472.606, 286.336 491 C 293.783 529.915, 308.742 562.401, 333.764 594 C 338.179 599.576, 376.553 638.819, 426.657 689 L 512.027 774.500 595.329 691 C 643.045 643.171, 682.365 602.920, 687.372 596.778 C 716.293 561.304, 733.656 522.912, 739.605 481.288 C 741.864 465.483, 741.826 434.568, 739.531 419.500 C 729.539 353.927, 695.470 300.612, 640.054 263.830 C 626.602 254.900, 606.664 244.539, 593.500 239.637 C 576.557 233.328, 554.266 227.995, 536.789 226.070 C 523.843 224.644, 494.802 224.887, 483 226.521 M 493 288.049 C 450.101 293.394, 410.814 313.961, 385.203 344.482 C 375.325 356.253, 369.014 365.984, 362.493 379.500 C 340.749 424.564, 341.107 478.120, 363.464 524.709 C 373.719 546.080, 385.706 561.600, 411.147 586.448 C 420.691 595.769, 447.105 621.795, 469.845 644.283 L 511.190 685.170 519.841 676.835 C 555.006 642.956, 633.387 565.107, 638.482 559 C 656.723 537.133, 669.126 511.473, 674.976 483.500 C 677.690 470.527, 678.673 447.011, 677.089 433 C 668.891 360.495, 615.030 303.166, 542.705 289.963 C 529.764 287.600, 504.429 286.625, 493 288.049 M 502 388.687 C 496.580 389.585, 486.223 393.322, 481 396.264 C 471.899 401.392, 461.002 413.100, 456.117 423 C 447.059 441.357, 447.066 459.621, 456.136 478.737 C 468.055 503.857, 496.124 517.916, 523.854 512.656 C 563.935 505.052, 585.825 462.800, 569.495 424.556 C 564.827 413.623, 553.009 400.948, 542.024 395.093 C 531.205 389.327, 514.385 386.635, 502 388.687" stroke="none" fill="#16263e" fill-rule="evenodd"/>
  <!-- Pin center -->
  <path d="M 507.728 224.722 C 509.503 224.943, 512.653 224.946, 514.728 224.730 C 516.802 224.513, 515.350 224.333, 511.500 224.328 C 507.650 224.324, 505.952 224.501, 507.728 224.722 M 493 288.049 C 450.101 293.394, 410.814 313.961, 385.203 344.482 C 375.325 356.253, 369.014 365.984, 362.493 379.500 C 340.749 424.564, 341.107 478.120, 363.464 524.709 C 373.719 546.080, 385.706 561.600, 411.147 586.448 C 420.691 595.769, 447.105 621.795, 469.845 644.283 L 511.190 685.170 519.841 676.835 C 555.006 642.956, 633.387 565.107, 638.482 559 C 656.723 537.133, 669.126 511.473, 674.976 483.500 C 677.690 470.527, 678.673 447.011, 677.089 433 C 668.891 360.495, 615.030 303.166, 542.705 289.963 C 529.764 287.600, 504.429 286.625, 493 288.049 M 502 388.687 C 496.580 389.585, 486.223 393.322, 481 396.264 C 471.899 401.392, 461.002 413.100, 456.117 423 C 447.059 441.357, 447.066 459.621, 456.136 478.737 C 468.055 503.857, 496.124 517.916, 523.854 512.656 C 563.935 505.052, 585.825 462.800, 569.495 424.556 C 564.827 413.623, 553.009 400.948, 542.024 395.093 C 531.205 389.327, 514.385 386.635, 502 388.687 M 282.320 450 C 282.320 453.575, 282.502 455.038, 282.723 453.250 C 282.945 451.462, 282.945 448.538, 282.723 446.750 C 282.502 444.962, 282.320 446.425, 282.320 450" stroke="none" fill="#f0b532" fill-rule="evenodd"/>
</svg>