<?xml version="1.0" encoding="utf-8"?>
<!-- Generator: Adobe Illustrator 19.0.0, SVG Export Plug-In . SVG Version: 6.00 Build 0)  -->
<svg version="1.1" id="Layer_1" xmlns="http://www.w3.org/2000/svg" xmlns:xlink="http://www.w3.org/1999/xlink" x="0px" y="0px"
	 viewBox="206 -116 1024 1024" style="enable-background:new 206 -116 1024 1024;" xml:space="preserve">
<style type="text/css">
	.st0{display:none;fill:#FFFAEA;}
	.st1{fill:#16263E;}
	.st2{fill:#F0B532;stroke:#000000;stroke-miterlimit:10;}
</style>
<path class="st0" d="M412,280v512l512.3-0.3l512.3-0.3l0.3-511.8L1437-232H924.5H412V280 M412.5,280.5c0,281.6,0.1,396.7,0.3,255.7
	c0.1-141,0.1-371.4,0-512C412.6-116.4,412.5-1.1,412.5,280.5 M907.5-7c-63.7,5.3-122.1,35.3-162,83C704,125.7,686.7,191.8,698,257.8
	c6.3,37.1,22.7,73.1,47.6,104.3c3.7,4.6,45.3,47.1,92.6,94.5l85.8,86l83.4-83.5c45.9-45.9,86.7-87.6,90.9-92.6
	c39.2-47.6,57.8-100.1,55.4-156.1c-3.6-84.7-52.1-157.4-130.2-194.9C988.1-1.6,944.4-10.1,907.5-7"/>
<path class="st1" d="M884.8-101.1C824.5-92.8,767.6-68,722.7-30.5c-59.3,49.5-96.2,117-106,193.5c-3.3,26.3-2.2,68.1,2.6,92.9
	c10.1,52.5,30.2,96.4,64,139c6,7.5,57.8,60.5,125.4,128.3L924,638.6l112.5-112.7c64.4-64.6,117.5-118.9,124.3-127.2
	c39-47.9,62.5-99.7,70.5-155.9c3-21.3,3-63.1-0.1-83.4c-13.5-88.5-59.5-160.5-134.3-210.2c-18.2-12.1-45.1-26-62.8-32.7
	c-22.9-8.5-53-15.7-76.6-18.3C939.9-103.7,900.7-103.3,884.8-101.1 M898.3-18.1c-57.9,7.2-111,35-145.5,76.2
	c-13.3,15.9-21.9,29-30.7,47.3c-29.4,60.8-28.9,133.1,1.3,196c13.8,28.9,30,49.8,64.4,83.3c12.9,12.6,48.5,47.7,79.2,78.1l55.8,55.2
	l11.7-11.3c47.5-45.6,153.3-150.7,160.2-159c24.6-29.5,41.4-64.2,49.3-101.9c3.7-17.5,5-49.3,2.9-68.2
	c-11.1-97.9-83.8-175.3-181.4-193.1C947.9-18.7,913.7-20,898.3-18.1 M910.4,117.8c-7.3,1.2-21.3,6.3-28.3,10.2
	c-12.3,6.9-27,22.7-33.6,36.1c-12.2,24.8-12.2,49.4,0,75.2c16.1,33.9,54,52.9,91.4,45.8c54.1-10.3,83.7-67.3,61.6-118.9
	c-6.3-14.8-22.3-31.9-37.1-39.8C949.9,118.7,927.2,115,910.4,117.8"/>
<g>
	<path class="st2" d="M1146.8,177.6C1135.7,79.7,1063,2.3,965.4-15.5c-17.5-3.2-51.7-4.5-67.1-2.6c-57.9,7.2-111,35-145.5,76.2
		c-13.3,15.9-21.9,29-30.7,47.3c-29.4,60.8-28.9,133.1,1.3,196c13.8,28.9,30,49.8,64.4,83.3c12.9,12.6,48.5,47.7,79.2,78.1
		l55.8,55.2l11.7-11.3c47.5-45.6,153.3-150.7,160.2-159c24.6-29.5,41.4-64.2,49.3-101.9C1147.6,228.3,1149,196.5,1146.8,177.6z
		 M940,285.1c-37.4,7.1-75.3-11.9-91.4-45.8c-12.2-25.8-12.3-50.5,0-75.2c6.6-13.4,21.3-29.2,33.6-36.1c7.1-4,21-9,28.3-10.2
		c16.7-2.8,39.4,0.9,54,8.6c14.8,7.9,30.8,25,37.1,39.8C1023.6,217.8,994.1,274.9,940,285.1z"/>
</g>
</svg>

