<?xml version="1.0" encoding="utf-8"?>
<!-- Generator: Adobe Illustrator 19.0.0, SVG Export Plug-In . SVG Version: 6.00 Build 0)  -->
<svg version="1.1" id="Layer_1" xmlns="http://www.w3.org/2000/svg" xmlns:xlink="http://www.w3.org/1999/xlink" x="0px" y="0px"
	 viewBox="206 -116 1024 1024" style="enable-background:new 206 -116 1024 1024;" xml:space="preserve">
<style type="text/css">
	.st0{display:none;fill:#FFFAEA;}
	.st1{fill:#16263E;}
	.st2{fill:#F0B532;stroke:#000000;stroke-miterlimit:10;}
</style>
<path class="st0" d="M412,280v512l512.3-0.3l512.3-0.3l0.3-511.8L1437-232H924.5H412V280 M412.5,280.5c0,281.6,0.1,396.7,0.3,255.7
	c0.1-141,0.1-371.4,0-512C412.6-116.4,412.5-1.1,412.5,280.5 M907.5-7c-63.7,5.3-122.1,35.3-162,83C704,125.7,686.7,191.8,698,257.8
	c6.3,37.1,22.7,73.1,47.6,104.3c3.7,4.6,45.3,47.1,92.6,94.5l85.8,86l83.4-83.5c45.9-45.9,86.7-87.6,90.9-92.6
	c39.2-47.6,57.8-100.1,55.4-156.1c-3.6-84.7-52.1-157.4-130.2-194.9C988.1-1.6,944.4-10.1,907.5-7"/>
<path class="st1" d="M867.4,9c-63.3,8.7-123,34.7-170.2,74.1c-62.3,52-101,122.8-111.3,203.1c-3.5,27.6-2.3,71.5,2.7,97.5
	c10.6,55.1,31.7,101.2,67.2,145.9c6.3,7.9,60.7,63.5,131.6,134.7l121,121.1l118.1-118.3c67.6-67.8,123.3-124.8,130.5-133.5
	c40.9-50.3,65.6-104.7,74-163.7c3.1-22.4,3.1-66.2-0.1-87.6c-14.2-92.9-62.5-168.5-141-220.7c-19.1-12.7-47.3-27.3-65.9-34.3
	c-24-8.9-55.6-16.5-80.4-19.2C925.3,6.3,884.1,6.7,867.4,9 M881.6,96.1c-60.8,7.6-116.5,36.7-152.7,80c-14,16.7-23,30.4-32.2,49.7
	c-30.9,63.8-30.3,139.7,1.4,205.8c14.5,30.3,31.5,52.3,67.6,87.4c13.5,13.2,50.9,50.1,83.1,82l58.6,57.9l12.3-11.9
	c49.9-47.9,160.9-158.2,168.2-166.9c25.8-31,43.5-67.4,51.8-107c3.9-18.4,5.2-51.8,3-71.6c-11.7-102.8-88-184-190.4-202.7
	C933.7,95.5,897.8,94.1,881.6,96.1 M894.3,238.8c-7.7,1.3-22.4,6.6-29.7,10.7c-12.9,7.2-28.3,23.8-35.3,37.9
	c-12.8,26-12.8,51.9,0,78.9c16.9,35.6,56.7,55.5,96,48.1c56.8-10.8,87.9-70.7,64.7-124.8c-6.6-15.5-23.4-33.5-38.9-41.8
	C935.8,239.7,911.9,235.9,894.3,238.8"/>
<g>
	<path class="st2" d="M1142.5,301.6c-11.7-102.8-88-184-190.4-202.7c-18.4-3.4-54.3-4.7-70.4-2.7c-60.8,7.6-116.5,36.7-152.7,80
		c-14,16.7-23,30.4-32.2,49.7c-30.9,63.8-30.3,139.7,1.4,205.8c14.5,30.3,31.5,52.3,67.6,87.4c13.5,13.2,50.9,50.1,83.1,82
		l58.6,57.9l12.3-11.9c49.9-47.9,160.9-158.2,168.2-166.9c25.8-31,43.5-67.4,51.8-107C1143.3,354.8,1144.8,321.4,1142.5,301.6z
		 M925.4,414.4c-39.3,7.5-79-12.5-96-48.1c-12.8-27.1-12.9-53,0-78.9c6.9-14.1,22.4-30.7,35.3-37.9c7.5-4.2,22-9.4,29.7-10.7
		c17.5-2.9,41.4,0.9,56.7,9c15.5,8.3,32.3,26.2,38.9,41.8C1013.1,343.8,982.2,403.7,925.4,414.4z"/>
</g>
</svg>

