<svg width="180" height="28" viewBox="0 0 180 28" xmlns="http://www.w3.org/2000/svg" role="img" aria-label="LootAura">
  <!-- Simple placeholder wordmark using brand colors -->
  <rect width="180" height="28" fill="none"/>
  <!-- Gold mark -->
  <circle cx="14" cy="14" r="6" fill="#F4B63A" />
  <!-- Navy wordmark -->
  <g fill="#3A2268">
    <path d="M32 20 V8 h3.2 v9.2 h6.4 V20 H32z"/>
    <path d="M44.8 14 c0-3.5 2.6-6.2 6.2-6.2 3.6 0 6.2 2.7 6.2 6.2 0 3.5-2.6 6.2-6.2 6.2-3.6 0-6.2-2.7-6.2-6.2zm9.1 0c0-1.8-1.3-3.2-3-3.2s-3 1.4-3 3.2 1.3 3.2 3 3.2 3-1.4 3-3.2z"/>
    <path d="M60.8 14 c0-3.5 2.6-6.2 6.2-6.2 3.6 0 6.2 2.7 6.2 6.2 0 3.5-2.6 6.2-6.2 6.2-3.6 0-6.2-2.7-6.2-6.2zm9.1 0c0-1.8-1.3-3.2-3-3.2s-3 1.4-3 3.2 1.3 3.2 3 3.2 3-1.4 3-3.2z"/>
    <path d="M77.8 8 h3.2 v7.3 c0 1.6.9 2.6 2.5 2.6 1.5 0 2.5-1 2.5-2.6V8h3.2v7.4c0 3.4-2.1 5.6-5.7 5.6s-5.7-2.2-5.7-5.6V8z"/>
    <path d="M96.3 8 h3.1l4.3 7.2 4.3-7.2h3.1V20h-3.1v-6l-4.3 6h-.1l-4.2-6v6h-3.1V8z"/>
    <path d="M117.8 8 h10.4v2.8h-7.2v1.7h6.4v2.7h-6.4v1.9h7.4V20h-10.6V8z"/>
    <path d="M131.2 8 h3.4l2.5 7.5 2.5-7.5h3.3L139.6 20h-3l-3.4-9.6L129.8 20h-3L124.9 8h3.3l2.5 7.5L131.2 8z"/>
    <path d="M146.6 8 h3.2v12h-3.2V8z"/>
    <path d="M151.6 8h3.3l3.2 7.7 3.2-7.7h3.3L159.9 20h-2.9L151.6 8z"/>
  </g>
</svg>

